<?xml version="1.0" encoding="UTF-8" standalone="no"?>
<svg width="183px" height="86px" viewBox="0 0 183 86" version="1.1" xmlns="http://www.w3.org/2000/svg" xmlns:xlink="http://www.w3.org/1999/xlink">
    <!-- Generator: Sketch 43.2 (39069) - http://www.bohemiancoding.com/sketch -->
    <title>Page 1</title>
    <desc>Created with Sketch.</desc>
    <defs>
        <polygon id="path-1" points="0 86 182.275 86 182.275 0.675 0 0.675"></polygon>
    </defs>
    <g id="Page-1" stroke="none" stroke-width="1" fill="none" fill-rule="evenodd">
        <g id="product-add-1" transform="translate(-136.000000, -101.000000)">
            <g id="Page-1" transform="translate(136.000000, 100.000000)">
                <polygon id="Fill-1" fill="#95CEC4" points="0 40.1857 3.242 40.1857 3.242 20.8937 0 20.8937"></polygon>
                <polygon id="Fill-2" fill="#EB795F" points="3.2419 35.8554 13.6349 20.8944 9.5919 20.8944 3.2419 30.0044"></polygon>
                <polygon id="Fill-3" fill="#EFB345" points="10.9239 39.9699 5.5849 32.3589 7.6179 29.4879 14.9199 39.9709"></polygon>
                <g id="Group-34" transform="translate(0.000000, 0.324700)">
                    <path d="M44.2137,30.3997 L51.0937,30.3997 C51.0937,30.3997 53.6037,30.1127 54.0137,27.5177 C54.4227,24.9237 51.9497,23.8237 51.0217,23.8237 L47.5017,23.8237 L47.5017,20.5707 L50.6867,20.5707 C50.6867,20.5707 54.7527,20.3707 56.6927,24.2997 C58.6327,28.2297 55.8737,32.3437 53.2717,33.1387 C50.7277,33.9157 47.5017,33.6527 47.5017,33.6527 L44.2137,33.6817 L44.2137,30.3997 Z" id="Fill-4" fill="#4C4B72"></path>
                    <mask id="mask-2" fill="white">
                        <use xlink:href="#path-1"></use>
                    </mask>
                    <g id="Clip-7"></g>
                    <polygon id="Fill-6" fill="#EA5F5E" mask="url(#mask-2)" points="44.213 30.4 47.501 30.4 47.501 20.569 44.213 20.569"></polygon>
                    <polygon id="Fill-8" fill="#EFB345" mask="url(#mask-2)" points="44.213 39.646 47.501 39.646 47.501 33.682 44.213 33.682"></polygon>
                    <polygon id="Fill-9" fill="#95CEC4" mask="url(#mask-2)" points="65.413 39.646 68.693 39.646 68.693 20.568 65.413 20.568"></polygon>
                    <polygon id="Fill-10" fill="#448A83" mask="url(#mask-2)" points="68.693 39.646 76.44 39.646 76.44 36.393 68.693 36.393"></polygon>
                    <polygon id="Fill-11" fill="#448A83" mask="url(#mask-2)" points="26.518 20.6295 32.974 39.5865 36.53 39.5865 29.966 20.6295"></polygon>
                    <polygon id="Fill-12" fill="#4C4B72" mask="url(#mask-2)" points="29.9716 20.6516 23.4316 39.5796 19.8756 39.5646 26.5236 20.6366"></polygon>
                    <polygon id="Fill-13" fill="#EA5F5E" mask="url(#mask-2)" points="26.2248 31.4956 30.2188 31.4956 31.2968 34.6616 25.1308 34.6616"></polygon>
                    <polygon id="Fill-14" fill="#296076" mask="url(#mask-2)" points="90.3381 20.6295 96.7941 39.5865 100.3501 39.5865 93.7861 20.6295"></polygon>
                    <polygon id="Fill-15" fill="#EFB345" mask="url(#mask-2)" points="93.7917 20.6516 87.2517 39.5796 83.6957 39.5646 90.3437 20.6366"></polygon>
                    <polygon id="Fill-16" fill="#95CEC4" mask="url(#mask-2)" points="90.0448 31.4956 94.0388 31.4956 95.1168 34.6616 88.9508 34.6616"></polygon>
                    <polygon id="Fill-17" fill="#1D1C1B" mask="url(#mask-2)" points="44.8015 0.6753 44.8015 16.3163 48.6645 16.3163 48.6645 4.5143 178.4125 4.5143 178.4125 61.8503 48.6645 61.8503 48.6645 45.3273 44.8015 45.3273 44.8015 65.6893 182.2755 65.6893 182.2755 0.6753"></polygon>
                    <path d="M46.313,83.5498 L45.319,83.5498 C45.198,83.5498 45.137,83.4938 45.137,83.3818 L45.137,75.9198 C45.137,75.8728 45.154,75.8338 45.186,75.8008 C45.219,75.7688 45.263,75.7518 45.319,75.7518 L46.313,75.7518 C46.36,75.7518 46.4,75.7688 46.432,75.8008 C46.465,75.8338 46.481,75.8728 46.481,75.9198 L46.481,79.4898 L48.959,75.9198 C48.987,75.8828 49.015,75.8448 49.043,75.8078 C49.071,75.7708 49.113,75.7518 49.169,75.7518 L50.429,75.7518 C50.485,75.7518 50.535,75.7708 50.577,75.8078 C50.619,75.8448 50.625,75.8828 50.597,75.9198 L48.259,79.2658 L51.116,83.3818 C51.143,83.4188 51.134,83.4568 51.087,83.4938 C51.041,83.5308 50.994,83.5498 50.948,83.5498 L49.673,83.5498 C49.626,83.5498 49.586,83.5308 49.554,83.4938 C49.521,83.4568 49.496,83.4188 49.477,83.3818 L47.433,80.4558 L46.481,81.8418 L46.481,83.3818 C46.481,83.4938 46.425,83.5498 46.313,83.5498" id="Fill-18" fill="#1D1C1B" mask="url(#mask-2)"></path>
                    <path d="M55.4136,80.8545 C55.4136,81.2305 55.5426,81.5515 55.7996,81.8185 C56.0556,82.0855 56.3706,82.2195 56.7436,82.2195 C56.9216,82.2195 57.0896,82.1845 57.2476,82.1145 C57.4066,82.0435 57.5496,81.9505 57.6756,81.8335 C57.8016,81.7155 57.9006,81.5775 57.9766,81.4175 C58.0506,81.2585 58.0926,81.0895 58.1016,80.9115 L58.1016,80.8545 C58.1016,80.6675 58.0666,80.4895 57.9966,80.3205 C57.9276,80.1515 57.8286,80.0035 57.7026,79.8765 C57.5766,79.7505 57.4326,79.6525 57.2686,79.5815 C57.1046,79.5105 56.9306,79.4755 56.7436,79.4755 C56.5576,79.4755 56.3826,79.5105 56.2196,79.5815 C56.0556,79.6525 55.9156,79.7505 55.7996,79.8765 C55.6826,80.0035 55.5886,80.1515 55.5186,80.3205 C55.4486,80.4895 55.4136,80.6675 55.4136,80.8545 M59.2756,83.5495 L58.2716,83.5495 C58.1586,83.5495 58.1016,83.4945 58.1016,83.3815 L58.1016,83.2275 C57.6826,83.4605 57.2286,83.5785 56.7436,83.5785 C56.3706,83.5785 56.0226,83.5075 55.7006,83.3685 C55.3786,83.2275 55.0966,83.0345 54.8536,82.7875 C54.6106,82.5405 54.4196,82.2525 54.2796,81.9255 C54.1406,81.5995 54.0696,81.2445 54.0696,80.8615 C54.0696,80.4885 54.1406,80.1355 54.2796,79.8045 C54.4196,79.4735 54.6106,79.1845 54.8536,78.9365 C55.0966,78.6895 55.3786,78.4965 55.7006,78.3555 C56.0226,78.2155 56.3706,78.1455 56.7436,78.1455 C57.2386,78.1455 57.6906,78.2705 58.1016,78.5195 L58.1016,78.3395 C58.1016,78.2935 58.1156,78.2545 58.1436,78.2225 C58.1726,78.1905 58.2156,78.1735 58.2716,78.1735 L59.2756,78.1735 C59.3226,78.1735 59.3626,78.1905 59.3956,78.2225 C59.4296,78.2555 59.4456,78.2945 59.4456,78.3415 L59.4456,83.3815 C59.4456,83.4945 59.3896,83.5495 59.2756,83.5495" id="Fill-19" fill="#1D1C1B" mask="url(#mask-2)"></path>
                    <path d="M64.5552,80.8545 C64.5552,81.0425 64.5902,81.2185 64.6602,81.3825 C64.7312,81.5465 64.8262,81.6925 64.9482,81.8185 C65.0692,81.9455 65.2082,82.0435 65.3672,82.1145 C65.5262,82.1845 65.6992,82.2195 65.8852,82.2195 C66.0722,82.2195 66.2472,82.1845 66.4102,82.1145 C66.5742,82.0435 66.7182,81.9455 66.8442,81.8185 C66.9702,81.6925 67.0692,81.5465 67.1382,81.3825 C67.2082,81.2185 67.2432,81.0425 67.2432,80.8545 C67.2432,80.6675 67.2082,80.4895 67.1382,80.3205 C67.0692,80.1515 66.9702,80.0035 66.8442,79.8765 C66.7182,79.7505 66.5742,79.6525 66.4102,79.5815 C66.2472,79.5105 66.0722,79.4755 65.8852,79.4755 C65.7082,79.4755 65.5402,79.5105 65.3812,79.5815 C65.2232,79.6525 65.0822,79.7455 64.9612,79.8625 C64.8402,79.9805 64.7422,80.1215 64.6672,80.2855 C64.5922,80.4495 64.5552,80.6205 64.5552,80.7985 L64.5552,80.8545 Z M64.3872,83.5495 L63.3932,83.5495 C63.2722,83.5495 63.2112,83.4945 63.2112,83.3815 L63.2112,75.9195 C63.2112,75.8735 63.2282,75.8335 63.2602,75.8005 C63.2932,75.7685 63.3372,75.7515 63.3932,75.7515 L64.3872,75.7515 C64.4342,75.7515 64.4742,75.7685 64.5062,75.8005 C64.5392,75.8335 64.5552,75.8735 64.5552,75.9195 L64.5592,78.4925 C64.9702,78.2615 65.4152,78.1455 65.8922,78.1455 C66.2672,78.1455 66.6182,78.2155 66.9452,78.3555 C67.2732,78.4965 67.5582,78.6895 67.8012,78.9365 C68.0442,79.1845 68.2372,79.4735 68.3762,79.8045 C68.5172,80.1355 68.5872,80.4885 68.5872,80.8615 C68.5872,81.2445 68.5172,81.5995 68.3762,81.9255 C68.2362,82.2525 68.0442,82.5405 67.8002,82.7875 C67.5572,83.0345 67.2722,83.2275 66.9442,83.3685 C66.6162,83.5075 66.2642,83.5785 65.8902,83.5785 C65.3842,83.5785 64.9392,83.4605 64.5552,83.2275 L64.5552,83.3815 C64.5552,83.4945 64.4992,83.5495 64.3872,83.5495 L64.3872,83.5495 Z" id="Fill-20" fill="#1D1C1B" mask="url(#mask-2)"></path>
                    <path d="M73.3609,80.8545 C73.3609,81.2305 73.4899,81.5515 73.7469,81.8185 C74.0029,82.0855 74.3179,82.2195 74.6909,82.2195 C74.8779,82.2195 75.0519,82.1845 75.2159,82.1145 C75.3799,82.0435 75.5239,81.9455 75.6499,81.8185 C75.7759,81.6925 75.8749,81.5465 75.9439,81.3825 C76.0139,81.2185 76.0489,81.0425 76.0489,80.8545 C76.0489,80.6675 76.0139,80.4895 75.9439,80.3205 C75.8749,80.1515 75.7759,80.0035 75.6499,79.8765 C75.5239,79.7505 75.3799,79.6525 75.2159,79.5815 C75.0519,79.5105 74.8779,79.4755 74.6909,79.4755 C74.5049,79.4755 74.3299,79.5105 74.1669,79.5815 C74.0029,79.6525 73.8629,79.7505 73.7469,79.8765 C73.6299,80.0035 73.5359,80.1515 73.4659,80.3205 C73.3959,80.4895 73.3609,80.6675 73.3609,80.8545 M72.0169,80.8615 C72.0169,80.4885 72.0879,80.1355 72.2279,79.8045 C72.3679,79.4735 72.5599,79.1845 72.8029,78.9365 C73.0469,78.6895 73.3299,78.4965 73.6519,78.3555 C73.9749,78.2155 74.3239,78.1455 74.6979,78.1455 C75.0729,78.1455 75.4239,78.2155 75.7509,78.3555 C76.0789,78.4965 76.3639,78.6895 76.6069,78.9365 C76.8499,79.1845 77.0429,79.4735 77.1819,79.8045 C77.3229,80.1355 77.3929,80.4885 77.3929,80.8615 C77.3929,81.2445 77.3229,81.5995 77.1819,81.9255 C77.0429,82.2525 76.8499,82.5405 76.6069,82.7875 C76.3639,83.0345 76.0789,83.2275 75.7509,83.3685 C75.4239,83.5075 75.0729,83.5785 74.6979,83.5785 C74.3239,83.5785 73.9749,83.5075 73.6519,83.3685 C73.3299,83.2275 73.0469,83.0345 72.8029,82.7875 C72.5599,82.5405 72.3679,82.2525 72.2279,81.9255 C72.0879,81.5995 72.0169,81.2445 72.0169,80.8615" id="Fill-21" fill="#1D1C1B" mask="url(#mask-2)"></path>
                    <path d="M86.1128,78.1738 C86.2258,78.1738 86.2828,78.2298 86.2828,78.3418 L86.2828,83.3818 C86.2828,83.4288 86.2658,83.4678 86.2328,83.5008 C86.1998,83.5328 86.1598,83.5498 86.1128,83.5498 L85.1088,83.5498 C85.0608,83.5498 85.0208,83.5338 84.9878,83.5008 C84.9558,83.4688 84.9388,83.4298 84.9388,83.3838 L84.9388,83.2318 C84.5558,83.4628 84.1078,83.5778 83.5948,83.5778 C83.2208,83.5778 82.8718,83.5078 82.5448,83.3678 C82.2178,83.2278 81.9328,83.0338 81.6908,82.7868 C81.4478,82.5398 81.2568,82.2528 81.1168,81.9258 C80.9768,81.5998 80.9068,81.2438 80.9068,80.8618 L80.9068,78.3418 C80.9068,78.2298 80.9668,78.1738 81.0888,78.1738 L82.0828,78.1738 C82.1478,78.1738 82.1998,78.2158 82.2368,78.2998 L82.2508,78.2998 L82.2508,80.8708 C82.2508,81.0588 82.2858,81.2368 82.3558,81.4048 C82.4258,81.5728 82.5238,81.7208 82.6498,81.8478 C82.7758,81.9738 82.9188,82.0718 83.0768,82.1428 C83.2358,82.2128 83.4078,82.2478 83.5948,82.2478 C83.7718,82.2478 83.9428,82.2128 84.1058,82.1428 C84.2688,82.0718 84.4088,81.9788 84.5258,81.8618 C84.6418,81.7438 84.7378,81.6068 84.8128,81.4468 C84.8868,81.2878 84.9288,81.1188 84.9388,80.9418 L84.9388,78.3428 C84.9388,78.2308 84.9958,78.1738 85.1088,78.1738 L86.1128,78.1738 Z" id="Fill-22" fill="#1D1C1B" mask="url(#mask-2)"></path>
                    <path d="M89.8951,79.3359 L89.8951,78.3419 C89.8951,78.2299 89.9511,78.1739 90.0631,78.1739 L90.9311,78.1739 L90.9311,75.9199 C90.9311,75.8729 90.9451,75.8339 90.9731,75.8009 C91.0011,75.7689 91.0441,75.7519 91.1011,75.7519 L92.1051,75.7519 C92.1521,75.7519 92.1921,75.7689 92.2251,75.8009 C92.2581,75.8339 92.2751,75.8729 92.2751,75.9199 L92.2751,78.1739 L93.1181,78.1739 C93.1641,78.1739 93.2031,78.1899 93.2351,78.2229 C93.2671,78.2559 93.2831,78.2949 93.2831,78.3419 L93.2831,79.3359 C93.2831,79.3919 93.2671,79.4339 93.2351,79.4619 C93.2031,79.4899 93.1641,79.5039 93.1181,79.5039 L92.2751,79.5039 L92.2751,83.3819 C92.2751,83.4939 92.2181,83.5499 92.1051,83.5499 L91.1011,83.5499 C90.9881,83.5499 90.9311,83.4939 90.9311,83.3819 L90.9311,79.5039 L90.0631,79.5039 C89.9511,79.5039 89.8951,79.4479 89.8951,79.3359" id="Fill-23" fill="#1D1C1B" mask="url(#mask-2)"></path>
                    <path d="M99.0786,79.4756 C98.8166,79.4756 98.5986,79.5446 98.4206,79.6826 C98.2436,79.8206 98.1126,79.9986 98.0286,80.2176 L100.1146,80.2176 C100.0306,79.9986 99.8976,79.8206 99.7156,79.6826 C99.5336,79.5446 99.3216,79.4756 99.0786,79.4756 M101.2346,82.6966 C100.9826,82.9666 100.6856,83.1816 100.3466,83.3396 C100.0056,83.4986 99.6396,83.5786 99.2466,83.5786 C98.8736,83.5786 98.5256,83.5076 98.2036,83.3686 C97.8816,83.2276 97.5996,83.0346 97.3566,82.7876 C97.1136,82.5396 96.9226,82.2526 96.7826,81.9256 C96.6426,81.5996 96.5726,81.2446 96.5726,80.8616 C96.5726,80.4886 96.6336,80.1356 96.7546,79.8046 C96.8756,79.4736 97.0466,79.1846 97.2666,78.9366 C97.4846,78.6896 97.7486,78.4966 98.0576,78.3556 C98.3646,78.2156 98.7056,78.1456 99.0786,78.1456 C99.6576,78.1456 100.1516,78.3066 100.5626,78.6286 C100.9736,78.9516 101.2636,79.3646 101.4316,79.8686 C101.4866,80.0266 101.5306,80.2176 101.5636,80.4416 C101.5966,80.6656 101.5996,80.9506 101.5706,81.2956 C101.5706,81.3426 101.5546,81.3816 101.5216,81.4146 C101.4886,81.4476 101.4496,81.4636 101.4026,81.4636 L98.0426,81.4636 C98.1546,81.6876 98.3156,81.8706 98.5256,82.0096 C98.7356,82.1496 98.9756,82.2196 99.2466,82.2196 C99.5556,82.2196 99.8346,82.1216 100.0866,81.9256 L100.2546,81.7576 C100.3296,81.6836 100.4136,81.6836 100.5066,81.7576 L101.2346,82.4436 C101.3006,82.5186 101.3006,82.6026 101.2346,82.6966" id="Fill-24" fill="#1D1C1B" mask="url(#mask-2)"></path>
                    <path d="M106.3872,83.5498 L105.3932,83.5498 C105.2722,83.5498 105.2112,83.4938 105.2112,83.3818 L105.2112,78.3418 C105.2112,78.2948 105.2282,78.2558 105.2602,78.2228 C105.2932,78.1908 105.3372,78.1738 105.3932,78.1738 L106.3872,78.1738 C106.4342,78.1738 106.4742,78.1908 106.5062,78.2228 C106.5392,78.2558 106.5552,78.2948 106.5552,78.3418 L106.5552,78.5378 C106.7512,78.4258 106.9612,78.3368 107.1852,78.2718 C107.4092,78.2068 107.6432,78.1738 107.8852,78.1738 C107.9972,78.1838 108.0532,78.2488 108.0532,78.3698 L108.0532,79.3498 C108.0342,79.4718 107.9792,79.5318 107.8852,79.5318 C107.7082,79.5318 107.5402,79.5648 107.3812,79.6298 C107.2232,79.6958 107.0822,79.7888 106.9612,79.9098 C106.8402,80.0308 106.7412,80.1708 106.6672,80.3298 C106.5922,80.4878 106.5552,80.6608 106.5552,80.8478 L106.5552,83.3818 C106.5552,83.4938 106.4992,83.5498 106.3872,83.5498" id="Fill-25" fill="#1D1C1B" mask="url(#mask-2)"></path>
                    <path d="M125.9449,79.7695 C126.1319,79.7695 126.3079,79.7345 126.4759,79.6655 C126.6439,79.5945 126.7919,79.4975 126.9179,79.3715 C127.0439,79.2455 127.1409,79.1005 127.2119,78.9365 C127.2819,78.7735 127.3159,78.5985 127.3159,78.4125 C127.3159,78.2345 127.2819,78.0645 127.2119,77.9005 C127.1409,77.7375 127.0439,77.5945 126.9179,77.4735 C126.7919,77.3525 126.6439,77.2565 126.4759,77.1865 C126.3079,77.1175 126.1319,77.0815 125.9449,77.0815 L124.6419,77.0815 L124.6419,79.7695 L125.9449,79.7695 Z M125.9449,75.7515 C126.3179,75.7515 126.6709,75.8225 127.0019,75.9615 C127.3329,76.1015 127.6199,76.2905 127.8629,76.5285 C128.1049,76.7665 128.2989,77.0465 128.4439,77.3695 C128.5889,77.6905 128.6609,78.0395 128.6609,78.4125 C128.6609,78.7855 128.5889,79.1345 128.4439,79.4615 C128.2989,79.7895 128.1049,80.0735 127.8629,80.3155 C127.6199,80.5585 127.3329,80.7495 127.0019,80.8895 C126.6709,81.0305 126.3179,81.0995 125.9449,81.0995 L124.6419,81.0995 L124.6419,83.3815 C124.6419,83.4285 124.6269,83.4675 124.5929,83.5005 C124.5609,83.5335 124.5209,83.5495 124.4739,83.5495 L123.4799,83.5495 C123.4239,83.5495 123.3809,83.5335 123.3469,83.5005 C123.3149,83.4675 123.2989,83.4285 123.2989,83.3815 L123.2989,75.9195 C123.2989,75.8075 123.3589,75.7515 123.4799,75.7515 L125.9449,75.7515 Z" id="Fill-26" fill="#1D1C1B" mask="url(#mask-2)"></path>
                    <path d="M133.6294,83.5498 L132.6244,83.5498 C132.5114,83.5498 132.4544,83.4938 132.4544,83.3818 L132.4544,75.9198 C132.4544,75.8728 132.4714,75.8338 132.5044,75.8008 C132.5374,75.7688 132.5774,75.7518 132.6244,75.7518 L133.6294,75.7518 C133.6764,75.7518 133.7164,75.7688 133.7494,75.8008 C133.7824,75.8338 133.7994,75.8728 133.7994,75.9198 L133.7994,83.3818 C133.7994,83.4938 133.7424,83.5498 133.6294,83.5498" id="Fill-27" fill="#1D1C1B" mask="url(#mask-2)"></path>
                    <path d="M138.9224,80.8545 C138.9224,81.2305 139.0514,81.5515 139.3084,81.8185 C139.5644,82.0855 139.8794,82.2195 140.2524,82.2195 C140.4304,82.2195 140.5984,82.1845 140.7564,82.1145 C140.9154,82.0435 141.0584,81.9505 141.1844,81.8335 C141.3104,81.7155 141.4094,81.5775 141.4854,81.4175 C141.5594,81.2585 141.6014,81.0895 141.6104,80.9115 L141.6104,80.8545 C141.6104,80.6675 141.5754,80.4895 141.5054,80.3205 C141.4364,80.1515 141.3374,80.0035 141.2114,79.8765 C141.0854,79.7505 140.9414,79.6525 140.7774,79.5815 C140.6134,79.5105 140.4394,79.4755 140.2524,79.4755 C140.0664,79.4755 139.8914,79.5105 139.7284,79.5815 C139.5644,79.6525 139.4244,79.7505 139.3084,79.8765 C139.1914,80.0035 139.0974,80.1515 139.0274,80.3205 C138.9574,80.4895 138.9224,80.6675 138.9224,80.8545 M142.7844,83.5495 L141.7804,83.5495 C141.6674,83.5495 141.6104,83.4945 141.6104,83.3815 L141.6104,83.2275 C141.1914,83.4605 140.7374,83.5785 140.2524,83.5785 C139.8794,83.5785 139.5314,83.5075 139.2094,83.3685 C138.8874,83.2275 138.6054,83.0345 138.3624,82.7875 C138.1194,82.5405 137.9284,82.2525 137.7884,81.9255 C137.6494,81.5995 137.5784,81.2445 137.5784,80.8615 C137.5784,80.4885 137.6494,80.1355 137.7884,79.8045 C137.9284,79.4735 138.1194,79.1845 138.3624,78.9365 C138.6054,78.6895 138.8874,78.4965 139.2094,78.3555 C139.5314,78.2155 139.8794,78.1455 140.2524,78.1455 C140.7474,78.1455 141.1994,78.2705 141.6104,78.5195 L141.6104,78.3395 C141.6104,78.2935 141.6244,78.2545 141.6524,78.2225 C141.6814,78.1905 141.7244,78.1735 141.7804,78.1735 L142.7844,78.1735 C142.8314,78.1735 142.8714,78.1905 142.9044,78.2225 C142.9384,78.2555 142.9544,78.2945 142.9544,78.3415 L142.9544,83.3815 C142.9544,83.4945 142.8984,83.5495 142.7844,83.5495" id="Fill-28" fill="#1D1C1B" mask="url(#mask-2)"></path>
                    <path d="M147.896,83.5498 L146.902,83.5498 C146.781,83.5498 146.72,83.4938 146.72,83.3818 L146.72,80.8618 L146.72,80.7638 L146.72,78.3418 C146.72,78.2948 146.737,78.2558 146.769,78.2228 C146.802,78.1908 146.846,78.1738 146.902,78.1738 L147.896,78.1738 C147.943,78.1738 147.983,78.1908 148.015,78.2228 C148.048,78.2548 148.064,78.2938 148.064,78.3398 L148.068,78.4918 C148.479,78.2618 148.924,78.1458 149.401,78.1458 C149.776,78.1458 150.126,78.2158 150.454,78.3558 C150.782,78.4958 151.067,78.6898 151.31,78.9368 C151.553,79.1848 151.746,79.4738 151.885,79.8048 C152.026,80.1358 152.096,80.4878 152.096,80.8618 L152.096,83.3818 C152.096,83.4568 152.08,83.5028 152.046,83.5218 C152.013,83.5408 151.973,83.5498 151.926,83.5498 L150.922,83.5498 C150.828,83.5498 150.771,83.5078 150.752,83.4238 L150.752,80.8528 C150.752,80.6648 150.717,80.4868 150.647,80.3188 C150.578,80.1508 150.479,80.0028 150.353,79.8758 C150.227,79.7498 150.083,79.6518 149.919,79.5808 C149.756,79.5108 149.581,79.4758 149.394,79.4758 C149.217,79.4758 149.049,79.5108 148.89,79.5808 C148.732,79.6518 148.591,79.7448 148.47,79.8618 C148.349,79.9798 148.25,80.1198 148.176,80.2828 C148.101,80.4468 148.064,80.6178 148.064,80.7968 L148.064,83.3808 C148.064,83.4928 148.008,83.5498 147.896,83.5498" id="Fill-29" fill="#1D1C1B" mask="url(#mask-2)"></path>
                    <path d="M157.0523,83.5498 L156.0583,83.5498 C155.9373,83.5498 155.8763,83.4938 155.8763,83.3818 L155.8763,75.9198 C155.8763,75.8728 155.8933,75.8338 155.9253,75.8008 C155.9583,75.7688 156.0023,75.7518 156.0583,75.7518 L157.0523,75.7518 C157.0993,75.7518 157.1393,75.7688 157.1713,75.8008 C157.2043,75.8338 157.2203,75.8728 157.2203,75.9198 L157.2203,80.1758 L158.4813,78.3418 C158.5083,78.3048 158.5383,78.2678 158.5723,78.2298 C158.6043,78.1928 158.6443,78.1738 158.6913,78.1738 L159.9503,78.1738 C160.0063,78.1738 160.0553,78.1928 160.0973,78.2298 C160.1393,78.2678 160.1513,78.3048 160.1323,78.3418 L158.6203,80.4978 L160.6363,83.3818 C160.6643,83.4188 160.6553,83.4568 160.6093,83.4938 C160.5623,83.5308 160.5153,83.5498 160.4683,83.5498 L159.2083,83.5498 C159.1533,83.5498 159.1113,83.5308 159.0823,83.4938 C159.0543,83.4568 159.0273,83.4188 158.9983,83.3818 L157.7943,81.6878 L157.2203,82.5278 L157.2203,83.3818 C157.2203,83.4938 157.1643,83.5498 157.0523,83.5498" id="Fill-30" fill="#1D1C1B" mask="url(#mask-2)"></path>
                    <path d="M165.4507,77.5996 L164.4457,77.5996 C164.3327,77.5996 164.2757,77.5386 164.2757,77.4176 L164.2757,76.4946 C164.2757,76.4476 164.2927,76.4076 164.3257,76.3746 C164.3587,76.3416 164.3987,76.3266 164.4457,76.3266 L165.4507,76.3266 C165.4977,76.3266 165.5377,76.3416 165.5707,76.3746 C165.6027,76.4076 165.6197,76.4476 165.6197,76.4946 L165.6197,77.4176 C165.6197,77.5386 165.5627,77.5996 165.4507,77.5996 L165.4507,77.5996 Z M165.4507,78.1876 C165.5627,78.1876 165.6197,78.2486 165.6197,78.3706 L165.6197,83.2696 C165.6197,83.6526 165.5587,84.0096 165.4377,84.3406 C165.3167,84.6716 165.1457,84.9586 164.9277,85.2026 C164.7077,85.4446 164.4457,85.6376 164.1427,85.7836 C163.8397,85.9276 163.5017,85.9996 163.1287,85.9996 C163.0067,85.9906 162.9457,85.9246 162.9457,85.8036 L162.9457,84.8096 C162.9737,84.6986 163.0337,84.6416 163.1267,84.6416 L163.2507,84.6276 C163.5737,84.5906 163.8257,84.4436 164.0057,84.1866 C164.1857,83.9296 164.2757,83.6236 164.2757,83.2696 L164.2757,78.3706 C164.2757,78.2486 164.3327,78.1876 164.4457,78.1876 L165.4507,78.1876 Z" id="Fill-31" fill="#1D1C1B" mask="url(#mask-2)"></path>
                    <path d="M171.8365,79.4756 C171.5745,79.4756 171.3565,79.5446 171.1785,79.6826 C171.0015,79.8206 170.8705,79.9986 170.7865,80.2176 L172.8725,80.2176 C172.7885,79.9986 172.6555,79.8206 172.4735,79.6826 C172.2915,79.5446 172.0795,79.4756 171.8365,79.4756 M173.9925,82.6966 C173.7405,82.9666 173.4435,83.1816 173.1045,83.3396 C172.7635,83.4986 172.3975,83.5786 172.0045,83.5786 C171.6315,83.5786 171.2835,83.5076 170.9615,83.3686 C170.6395,83.2276 170.3575,83.0346 170.1145,82.7876 C169.8715,82.5396 169.6805,82.2526 169.5405,81.9256 C169.4005,81.5996 169.3305,81.2446 169.3305,80.8616 C169.3305,80.4886 169.3915,80.1356 169.5125,79.8046 C169.6335,79.4736 169.8045,79.1846 170.0245,78.9366 C170.2425,78.6896 170.5065,78.4966 170.8155,78.3556 C171.1225,78.2156 171.4635,78.1456 171.8365,78.1456 C172.4155,78.1456 172.9095,78.3066 173.3205,78.6286 C173.7315,78.9516 174.0215,79.3646 174.1895,79.8686 C174.2445,80.0266 174.2885,80.2176 174.3215,80.4416 C174.3545,80.6656 174.3575,80.9506 174.3285,81.2956 C174.3285,81.3426 174.3125,81.3816 174.2795,81.4146 C174.2465,81.4476 174.2075,81.4636 174.1605,81.4636 L170.8005,81.4636 C170.9125,81.6876 171.0735,81.8706 171.2835,82.0096 C171.4935,82.1496 171.7335,82.2196 172.0045,82.2196 C172.3135,82.2196 172.5925,82.1216 172.8445,81.9256 L173.0125,81.7576 C173.0875,81.6836 173.1715,81.6836 173.2645,81.7576 L173.9925,82.4436 C174.0585,82.5186 174.0585,82.6026 173.9925,82.6966" id="Fill-32" fill="#1D1C1B" mask="url(#mask-2)"></path>
                    <path d="M179.9419,83.5781 C179.5499,83.5781 179.1839,83.5021 178.8429,83.3511 C178.5029,83.2001 178.2069,82.9881 177.9549,82.7151 C177.8889,82.6201 177.8889,82.5361 177.9549,82.4601 L178.6819,81.7711 C178.7759,81.6971 178.8599,81.6971 178.9339,81.7711 C179.2799,82.0801 179.6159,82.2381 179.9419,82.2481 C180.0169,82.2481 180.0979,82.2411 180.1869,82.2261 C180.2759,82.2131 180.3599,82.1921 180.4389,82.1641 C180.5179,82.1371 180.5869,82.0991 180.6419,82.0531 C180.6989,82.0061 180.7259,81.9451 180.7259,81.8711 C180.7259,81.8061 180.6889,81.7501 180.6149,81.7041 C180.5399,81.6571 180.4439,81.6151 180.3279,81.5781 C180.2109,81.5411 180.0759,81.5061 179.9209,81.4741 C179.7669,81.4411 179.6109,81.4011 179.4529,81.3541 C179.2649,81.2991 179.0789,81.2311 178.8919,81.1521 C178.7059,81.0731 178.5379,80.9741 178.3879,80.8521 C178.2389,80.7311 178.1179,80.5831 178.0239,80.4061 C177.9309,80.2291 177.8839,80.0151 177.8839,79.7651 C177.8839,79.4571 177.9549,79.1991 178.0939,78.9901 C178.2339,78.7811 178.4099,78.6151 178.6199,78.4951 C178.8299,78.3741 179.0599,78.2851 179.3119,78.2291 C179.5639,78.1741 179.7969,78.1451 180.0119,78.1451 C180.4049,78.1451 180.7709,78.2221 181.1109,78.3721 C181.4519,78.5231 181.7489,78.7351 182.0009,79.0091 C182.0659,79.1031 182.0659,79.1881 182.0009,79.2641 L181.2719,79.9521 C181.1789,80.0261 181.0949,80.0261 181.0199,79.9521 C180.8339,79.7931 180.6589,79.6771 180.4959,79.6011 C180.3319,79.5271 180.1709,79.4851 180.0119,79.4751 C179.9379,79.4751 179.8559,79.4821 179.7669,79.4971 C179.6779,79.5111 179.5939,79.5311 179.5149,79.5591 C179.4359,79.5881 179.3689,79.6251 179.3119,79.6711 C179.2559,79.7181 179.2279,79.7781 179.2279,79.8521 C179.2279,79.9271 179.2629,79.9871 179.3339,80.0341 C179.4039,80.0801 179.4989,80.1221 179.6209,80.1591 C179.7419,80.1961 179.8769,80.2311 180.0259,80.2651 C180.1749,80.2971 180.3349,80.3411 180.5029,80.3961 C180.6889,80.4521 180.8759,80.5171 181.0619,80.5921 C181.2489,80.6661 181.4169,80.7621 181.5659,80.8781 C181.7149,80.9941 181.8379,81.1401 181.9299,81.3171 C182.0239,81.4941 182.0709,81.7081 182.0709,81.9591 C182.0709,82.2751 182.0009,82.5361 181.8599,82.7401 C181.7199,82.9451 181.5459,83.1101 181.3359,83.2361 C181.1259,83.3611 180.8939,83.4501 180.6419,83.5011 C180.3899,83.5521 180.1569,83.5781 179.9419,83.5781" id="Fill-33" fill="#1D1C1B" mask="url(#mask-2)"></path>
                </g>
            </g>
        </g>
    </g>
</svg>