<?xml version="1.0" encoding="UTF-8" standalone="no"?>
<svg width="18px" height="12px" viewBox="0 0 18 12" version="1.1" xmlns="http://www.w3.org/2000/svg" xmlns:xlink="http://www.w3.org/1999/xlink">
    <!-- Generator: Sketch 43.2 (39069) - http://www.bohemiancoding.com/sketch -->
    <title>Message Icon</title>
    <desc>Created with Sketch.</desc>
    <defs></defs>
    <g id="Page-1" stroke="none" stroke-width="1" fill="none" fill-rule="evenodd">
        <g id="home" transform="translate(-253.000000, -4224.000000)" fill="#B4B8C9">
            <g id="FOOTER" transform="translate(-21.000000, 3952.000000)">
                <g id="Subscribe-Us" transform="translate(257.000000, 224.000000)">
                    <path d="M33.0003128,60.0008 L19.0093128,60.0008 C17.9053128,60.0008 17.0103128,59.1058 17.0103128,58.0008 L17.0103128,51.0008 C17.0103128,50.2298 16.9023128,48.6458 17.3853128,48.3758 C17.4663128,48.6868 18.2913128,49.8458 18.5223128,50.0898 L24.4923128,55.4258 C24.9073128,55.8658 25.4623128,55.9178 26.0053128,55.8758 C26.5643128,55.9158 27.1373128,55.6818 27.5643128,55.2538 L33.7533128,50.0608 C33.9523128,49.8608 34.5373128,48.6248 34.6243128,48.3758 C34.9933128,48.8518 34.9993128,50.3278 34.9993128,51.0008 L34.9993128,58.0008 C34.9993128,59.1058 34.1043128,60.0008 33.0003128,60.0008 Z M33.7528128,49.061 L27.5648128,54.253 C27.1368128,54.682 26.5638128,55.166 26.0048128,55.126 C25.4628128,55.167 24.9068128,54.866 24.4928128,54.425 L18.5218128,49.091 C18.2328128,48.783 18.0888128,48.398 18.0208128,48 L26.0048128,48 L34.2698128,48 C34.1998128,48.387 34.0518128,48.763 33.7528128,49.061 Z" id="Message-Icon"></path>
                </g>
            </g>
        </g>
    </g>
</svg>