<?xml version="1.0" encoding="UTF-8" standalone="no"?>
<svg width="17px" height="14px" viewBox="0 0 17 14" version="1.1" xmlns="http://www.w3.org/2000/svg" xmlns:xlink="http://www.w3.org/1999/xlink">
    <!-- Generator: Sketch 43.2 (39069) - http://www.bohemiancoding.com/sketch -->
    <title>Twitter Icon</title>
    <desc>Created with Sketch.</desc>
    <defs></defs>
    <g id="Page-1" stroke="none" stroke-width="1" fill="none" fill-rule="evenodd">
        <g id="home" transform="translate(-636.000000, -4056.000000)" fill="#B4B8C9">
            <g id="FOOTER" transform="translate(-21.000000, 3952.000000)">
                <g id="Last-tweets" transform="translate(657.000000, 68.000000)">
                    <path d="M16.998,37.658 C16.373,37.939 15.7,38.129 14.995,38.215 C15.715,37.777 16.268,37.085 16.528,36.26 C15.854,36.665 15.108,36.959 14.313,37.116 C13.678,36.43 12.772,36 11.768,36 C9.842,36 8.281,37.583 8.281,39.535 C8.281,39.813 8.312,40.082 8.371,40.341 C5.473,40.194 2.904,38.787 1.184,36.649 C0.884,37.169 0.712,37.777 0.712,38.425 C0.712,39.651 1.328,40.733 2.263,41.366 C1.691,41.347 1.154,41.188 0.684,40.924 L0.684,40.968 C0.684,42.681 1.885,44.108 3.481,44.434 C3.188,44.515 2.881,44.558 2.562,44.558 C2.338,44.558 2.119,44.536 1.907,44.494 C2.35,45.898 3.638,46.92 5.164,46.948 C3.97,47.896 2.467,48.462 0.833,48.462 C0.551,48.462 0.273,48.445 0,48.413 C1.543,49.415 3.376,50 5.346,50 C11.761,50 15.268,44.614 15.268,39.944 C15.268,39.791 15.264,39.639 15.258,39.488 C15.94,38.989 16.531,38.368 16.998,37.659 L16.998,37.658 Z" id="Twitter-Icon"></path>
                </g>
            </g>
        </g>
    </g>
</svg>